<mxfile host="app.diagrams.net" modified="2023-11-17T17:45:23.812Z" agent="Mozilla/5.0 (Macintosh; Intel Mac OS X 10_15_7) AppleWebKit/537.36 (KHTML, like Gecko) Chrome/119.0.0.0 Safari/537.36" version="22.1.3" etag="pvAKzeh6etOetI6aV1zR" type="github">
  <diagram name="Page-1" id="zfyQsqnkLZmkCXH9oWcH">
    <mxGraphModel>
      <root>
        <mxCell id="0" />
        <mxCell id="1" parent="0" />
      </root>
    </mxGraphModel>
  </diagram>
</mxfile>
